<svg xmlns="http://www.w3.org/2000/svg" viewBox="0 0 780 470" font-family="'Segoe UI',Roboto,Arial,sans-serif">
<rect width="780" height="470" fill="#ffffff"/>
<text x="390" y="30" text-anchor="middle" font-size="18" font-weight="700" fill="#222">Средний FPS (потолок по compute)</text><text x="390" y="50" text-anchor="middle" font-size="13" fill="#666">model.h.json · 326 786 вершин · больше — лучше</text>
<line x1="66" y1="406" x2="580" y2="406" stroke="#e6e6e6"/>
<text x="58" y="410" text-anchor="end" font-size="11" fill="#666">0</text>
<line x1="66" y1="337.6" x2="580" y2="337.6" stroke="#e6e6e6"/>
<text x="58" y="341.6" text-anchor="end" font-size="11" fill="#666">288</text>
<line x1="66" y1="269.2" x2="580" y2="269.2" stroke="#e6e6e6"/>
<text x="58" y="273.2" text-anchor="end" font-size="11" fill="#666">576</text>
<line x1="66" y1="200.8" x2="580" y2="200.8" stroke="#e6e6e6"/>
<text x="58" y="204.8" text-anchor="end" font-size="11" fill="#666">863</text>
<line x1="66" y1="132.39999999999998" x2="580" y2="132.39999999999998" stroke="#e6e6e6"/>
<text x="58" y="136.39999999999998" text-anchor="end" font-size="11" fill="#666">1151</text>
<line x1="66" y1="64" x2="580" y2="64" stroke="#e6e6e6"/>
<text x="58" y="68" text-anchor="end" font-size="11" fill="#666">1439</text>
<text x="16" y="235" transform="rotate(-90 16 235)" text-anchor="middle" font-size="12" fill="#666">FPS = 1000 / avg</text>
<rect x="108.83333333333334" y="202.86909750453435" width="85.66666666666667" height="203.13090249546565" fill="#7c3aed" rx="2"/>
<text x="151.66666666666669" y="196.86909750453435" text-anchor="middle" font-size="11.5" font-weight="700" fill="#222">855</text>
<rect x="194.5" y="243.22434173494278" width="85.66666666666667" height="162.77565826505722" fill="#d97706" rx="2"/>
<text x="237.33333333333334" y="237.22434173494278" text-anchor="middle" font-size="11.5" font-weight="700" fill="#222">685</text>
<text x="194.5" y="428" text-anchor="middle" font-size="13" fill="#222">Кватернион</text>
<rect x="365.8333333333333" y="116.16949152542372" width="85.66666666666667" height="289.8305084745763" fill="#7c3aed" rx="2"/>
<text x="408.66666666666663" y="110.16949152542372" text-anchor="middle" font-size="11.5" font-weight="700" fill="#222">1220</text>
<rect x="451.5" y="220.31359059353306" width="85.66666666666667" height="185.68640940646694" fill="#d97706" rx="2"/>
<text x="494.3333333333333" y="214.31359059353306" text-anchor="middle" font-size="11.5" font-weight="700" fill="#222">781</text>
<text x="451.5" y="428" text-anchor="middle" font-size="13" fill="#222">Матрица</text>
<line x1="66" y1="406" x2="580" y2="406" stroke="#333"/>
<line x1="66" y1="64" x2="66" y2="406" stroke="#333"/>
<rect x="604" y="64" width="14" height="14" rx="2" fill="#7c3aed"/><text x="624" y="76" font-size="13" fill="#222">WASM</text><rect x="604" y="86" width="14" height="14" rx="2" fill="#d97706"/><text x="624" y="98" font-size="13" fill="#222">JS</text>
</svg>
